<svg width="16" height="14" viewBox="0 0 16 14" fill="none" xmlns="http://www.w3.org/2000/svg">
<path d="M7.95989 2.70711L7.25278 2L8.66699 0.585786L9.3741 1.29289L7.95989 2.70711ZM13.667 7L14.3741 6.29289L15.0812 7L14.3741 7.70711L13.667 7ZM9.3741 12.7071L8.66699 13.4142L7.25278 12L7.95989 11.2929L9.3741 12.7071ZM1.16699 8H0.166992V6H1.16699V8ZM9.3741 1.29289L14.3741 6.29289L12.9599 7.70711L7.95989 2.70711L9.3741 1.29289ZM14.3741 7.70711L9.3741 12.7071L7.95989 11.2929L12.9599 6.29289L14.3741 7.70711ZM13.667 8H1.16699V6H13.667V8Z" fill="white"/>
</svg>
