<svg width="216" height="53" viewBox="0 0 216 53" fill="none" xmlns="http://www.w3.org/2000/svg">
<path d="M59.8887 15.7826V17.5624H67.0318V15.7826H64.3724V9.09295H59.8887V10.8728H62.5474V15.7826H59.8887Z" fill="#00594C"/>
<path d="M71.6702 10.9652C72.8195 10.9652 73.7543 11.8756 73.7543 12.9946C73.7543 14.1155 72.8195 15.0278 71.6702 15.0278C70.5227 15.0278 69.5893 14.1155 69.5893 12.9946C69.5893 11.8756 70.5227 10.9652 71.6702 10.9652ZM71.6702 16.8076C72.41 16.8076 73.1339 16.6014 73.7543 16.2199V16.2552C73.7511 17.3712 72.8164 18.2822 71.6708 18.2853L71.4098 18.2859V20.0657L71.6721 20.0651C73.8235 20.062 75.5761 18.3528 75.5792 16.2558V13.0082L75.5799 12.9946C75.5799 10.894 73.826 9.18472 71.6702 9.18472C69.5163 9.18472 67.7637 10.894 67.7637 12.9946C67.7637 15.0971 69.5163 16.8076 71.6702 16.8076" fill="#00594C"/>
<path d="M71.7123 42.1498C70.5794 42.1498 69.658 41.2493 69.658 40.1433C69.658 39.0385 70.5794 38.1392 71.7123 38.1392C72.8464 38.1392 73.769 39.0385 73.769 40.1433C73.769 41.2493 72.8464 42.1498 71.7123 42.1498ZM71.7123 33.131C72.6108 33.131 73.3417 33.8426 73.3417 34.7176C73.3417 35.5946 72.6108 36.3068 71.7123 36.3068C70.815 36.3068 70.0854 35.5946 70.0854 34.7176C70.0854 33.8426 70.815 33.131 71.7123 33.131ZM74.1272 37.1998C74.8263 36.5551 75.2206 35.6676 75.2206 34.7176C75.2206 32.8325 73.6465 31.2985 71.7123 31.2985C69.7787 31.2985 68.2064 32.8325 68.2064 34.7176C68.2064 35.667 68.6008 36.5545 69.2999 37.1998C68.3849 37.9132 67.8477 38.9895 67.8477 40.1433C67.8477 42.2229 69.5812 43.9148 71.7123 43.9148C73.8446 43.9148 75.58 42.2229 75.58 40.1433C75.58 38.9895 75.0422 37.9132 74.1272 37.1998" fill="#00594C"/>
<path d="M64.3724 35.4458H59.8887V37.2257H62.5474V42.1354H59.8887V43.9153H67.0318V42.1354H64.3724V35.4458Z" fill="#00594C"/>
<path d="M93.2702 14.4993L94.96 18.8591H91.6123L93.2702 14.4993ZM89.8743 23.4221L90.9106 20.7009H95.6775L96.7297 23.4221H98.8817L94.3701 12.0995H92.2657L87.7705 23.4221H89.8743Z" fill="#00594C"/>
<path d="M104.492 16.6284C105.943 16.6284 106.915 17.7611 106.915 19.214C106.915 20.6674 105.943 21.7995 104.492 21.7995C103.058 21.7995 102.101 20.6334 102.101 19.214C102.101 17.7778 103.058 16.6284 104.492 16.6284ZM102.085 22.2052H102.165C102.691 23.0499 103.647 23.6586 104.859 23.6586C107.091 23.6927 108.764 21.867 108.764 19.2307C108.764 16.6284 107.139 14.7693 104.859 14.7866C103.664 14.8033 102.707 15.378 102.165 16.1887H102.085V15.0232H100.268V26.8022H102.085V22.2052Z" fill="#00594C"/>
<path d="M111.283 23.4219L113.132 20.684L115.013 23.4219H117.405L114.312 19.1128L117.229 15.023H115.029L113.211 17.7101L111.378 15.023H109.003L112 19.197L108.971 23.4219H111.283Z" fill="#00594C"/>
<path d="M121.867 16.6284C123.303 16.6284 124.259 17.7778 124.259 19.214C124.259 20.6334 123.303 21.7995 121.867 21.7995C120.417 21.7995 119.444 20.6675 119.444 19.214C119.444 17.7611 120.417 16.6284 121.867 16.6284ZM121.501 23.6586C122.745 23.6586 123.669 23.0499 124.195 22.2052H124.274V23.4221H126.092V15.0232H124.274V16.1887H124.195C123.669 15.3781 122.728 14.8033 121.501 14.7866C119.221 14.7693 117.595 16.6284 117.595 19.2307C117.595 21.867 119.269 23.6927 121.501 23.6586" fill="#00594C"/>
<path d="M129.868 20.0759H133.774V23.4219H135.608V15.0231H133.774V18.2174H129.868V15.0231H128.035V23.4219H129.868V20.0759Z" fill="#00594C"/>
<path d="M139.386 16.9156H143.674V15.0231H137.553V23.4219H139.386V16.9156Z" fill="#00594C"/>
<path d="M148.2 16.5775C149.317 16.5775 150.145 17.2538 150.385 18.3017H146.048C146.271 17.2705 147.101 16.5775 148.2 16.5775ZM148.232 23.6586C150.098 23.6586 151.644 22.6107 152.154 20.7857H150.257C149.938 21.4619 149.157 21.8843 148.265 21.8669C147.021 21.8335 146.16 20.9714 146.017 19.8902H152.281C152.521 16.9999 150.863 14.7865 148.232 14.7865C145.793 14.7865 144.119 16.7466 144.119 19.2312C144.119 21.6137 145.634 23.6586 148.232 23.6586" fill="#00594C"/>
<path d="M156.171 20.1603C156.202 19.3831 156.235 18.0652 156.235 16.8991H159.471V23.4221H161.304V15.0232H154.464C154.464 16.6625 154.464 19.3156 154.401 20.1101C154.305 21.5463 153.668 21.5463 153.173 21.5463H152.998V23.4729H153.333C154.353 23.4729 156.011 23.4729 156.171 20.1603" fill="#00594C"/>
<path d="M165.081 21.6139V19.4173H167.68C168.27 19.4173 168.685 19.9238 168.685 20.4985C168.685 21.1067 168.27 21.6139 167.68 21.6139H165.081ZM170.502 20.5153C170.502 18.9943 169.402 17.6424 167.744 17.6424H165.081V15.0227H163.248V23.4222H167.744C169.402 23.4222 170.502 22.0703 170.502 20.5153Z" fill="#00594C"/>
<path d="M175.539 23.6587C177.66 23.6587 179.222 22.2225 179.573 20.2786H177.643C177.373 21.1747 176.559 21.7996 175.555 21.7996C174.104 21.7996 173.196 20.6334 173.196 19.2307C173.196 17.8113 174.104 16.6625 175.555 16.6625C176.591 16.6625 177.373 17.3047 177.643 18.1494H179.573C179.222 16.2061 177.66 14.7867 175.539 14.7867C173.004 14.7867 171.362 16.73 171.362 19.214C171.362 21.698 173.004 23.6587 175.539 23.6587Z" fill="#00594C"/>
<path d="M182.744 20.0418H184.082L186.426 23.4219H188.626L185.629 19.0788L188.562 15.023H186.441L184.115 18.2508H182.744V15.023H180.909V23.4219H182.744V20.0418Z" fill="#00594C"/>
<path d="M195.544 17.7944V23.4219H197.378V15.0231H195.544L191.59 20.6673V15.0231H189.758V23.4219H191.59L195.544 17.7944Z" fill="#00594C"/>
<path d="M202.845 16.5775C203.961 16.5775 204.79 17.2538 205.029 18.3017H200.693C200.916 17.2705 201.746 16.5775 202.845 16.5775ZM202.877 23.6586C204.742 23.6586 206.288 22.6107 206.799 20.7857H204.902C204.583 21.4619 203.801 21.8843 202.91 21.8669C201.666 21.8335 200.805 20.9714 200.662 19.8902H206.926C207.166 16.9999 205.507 14.7865 202.877 14.7865C200.438 14.7865 198.764 16.7466 198.764 19.2312C198.764 21.6137 200.278 23.6586 202.877 23.6586" fill="#00594C"/>
<path d="M93.0631 37.1295H90.1936V35.4902H93.0631C93.6372 35.4902 93.9083 35.8959 93.9083 36.3015C93.9083 36.7239 93.6213 37.1295 93.0631 37.1295ZM90.1936 32.1783H92.7761C93.3343 32.1783 93.5896 32.5666 93.5896 32.9722C93.5896 33.3946 93.3184 33.8002 92.7761 33.8002H90.1936V32.1783ZM94.4659 34.5099V34.4591C95.1358 34.0708 95.4228 33.3772 95.4228 32.7022C95.4228 31.5689 94.6576 30.4541 93.0155 30.4541H88.3604V38.8536H93.3502C94.9446 38.8536 95.7574 37.6534 95.7574 36.4706C95.7574 35.6593 95.3745 34.8474 94.4659 34.5099" fill="#00594C"/>
<path d="M100.953 37.2311C99.487 37.2311 98.5142 36.0817 98.5142 34.6622C98.5142 33.2255 99.4705 32.0934 100.953 32.0934C102.388 32.0934 103.345 33.2255 103.345 34.6622C103.345 36.0643 102.388 37.2311 100.953 37.2311ZM100.953 30.2176C98.3548 30.2176 96.665 32.1609 96.665 34.6449C96.665 37.1295 98.3706 39.0902 100.953 39.0902C103.488 39.0902 105.178 37.1295 105.178 34.6449C105.178 32.1609 103.504 30.2176 100.953 30.2176Z" fill="#00594C"/>
<path d="M112.223 36.994H108.717C108.845 36.5884 108.939 36.0645 108.972 35.4062C109.004 34.6451 109.019 33.4281 109.035 32.3301H112.223V36.994ZM114.057 30.4537H107.281C107.265 32.0936 107.265 34.7633 107.218 35.5746C107.122 36.994 106.468 36.994 105.974 36.994H105.783V40.864H107.553V38.8532H113.642V40.864H115.412V36.994H114.057V30.4537Z" fill="#00594C"/>
<path d="M120.21 37.2311C118.743 37.2311 117.77 36.0817 117.77 34.6622C117.77 33.2255 118.727 32.0934 120.21 32.0934C121.645 32.0934 122.601 33.2255 122.601 34.6622C122.601 36.0643 121.645 37.2311 120.21 37.2311ZM120.21 30.2176C117.611 30.2176 115.922 32.1609 115.922 34.6449C115.922 37.1295 117.627 39.0902 120.21 39.0902C122.744 39.0902 124.434 37.1295 124.434 34.6449C124.434 32.1609 122.761 30.2176 120.21 30.2176Z" fill="#00594C"/>
<path d="M130.077 32.0597C131.528 32.0597 132.5 33.1924 132.5 34.6452C132.5 36.0981 131.528 37.2308 130.077 37.2308C128.643 37.2308 127.685 36.0647 127.685 34.6452C127.685 33.2085 128.643 32.0597 130.077 32.0597ZM125.853 30.4545V42.2335H127.67V37.6364H127.75C128.276 38.4811 129.232 39.0899 130.444 39.0899C132.676 39.124 134.349 37.2989 134.349 34.662C134.349 32.0597 132.724 30.2005 130.444 30.2173C129.248 30.2346 128.291 30.8087 127.75 31.6206H127.67V30.4545H125.853Z" fill="#00594C"/>
<path d="M139.641 32.0935C141.076 32.0935 142.032 33.2256 142.032 34.6618C142.032 36.0645 141.076 37.2312 139.641 37.2312C138.174 37.2312 137.201 36.0812 137.201 34.6618C137.201 33.2256 138.158 32.0935 139.641 32.0935ZM139.641 39.0903C142.175 39.0903 143.865 37.1296 143.865 34.645C143.865 32.161 142.191 30.2177 139.641 30.2177C137.042 30.2177 135.353 32.161 135.353 34.645C135.353 37.1296 137.058 39.0903 139.641 39.0903Z" fill="#00594C"/>
<path d="M149.077 32.0935C150.113 32.0935 150.894 32.7357 151.166 33.5804H153.095C152.744 31.6371 151.181 30.2176 149.061 30.2176C146.526 30.2176 144.885 32.161 144.885 34.645C144.885 37.129 146.526 39.0897 149.061 39.0897C151.181 39.0897 152.744 37.6541 153.095 35.7095H151.166C150.894 36.6057 150.082 37.2305 149.077 37.2305C147.627 37.2305 146.718 36.0644 146.718 34.6617C146.718 33.2423 147.627 32.0935 149.077 32.0935Z" fill="#00594C"/>
<path d="M155.119 35.5407C155.023 36.9769 154.385 36.9769 153.89 36.9769H153.716V38.9041H154.05C155.071 38.9041 156.729 38.9041 156.888 35.5915C156.92 34.8143 156.952 33.4958 156.952 32.3297H160.188V38.8533H162.022V30.4544H155.183C155.183 32.0937 155.183 34.7468 155.119 35.5407Z" fill="#00594C"/>
<path d="M165.799 36.0983V30.4541H163.966V38.853H165.799L169.753 33.2248V38.853H171.586V30.4541H169.753L165.799 36.0983Z" fill="#00594C"/>
<path d="M213.459 50.1871H82.4864V2.47722H213.459V50.1871ZM2.54 2.47785H52.9818V50.1877H2.54V2.47785ZM79.947 25.0945H55.5218V2.47722H79.947V25.0945ZM55.5218 27.5717H79.947V50.1877H55.5218V27.5717ZM0 52.6643H216V4.33476e-05H0V52.6643Z" fill="#00594C"/>
<path d="M39.0605 26.863H31.6786V21.5445C31.7021 18.5186 34.2465 16.0569 37.351 16.0569C40.4797 16.0569 43.0248 18.5378 43.0248 21.5872C43.0248 24.0173 41.4341 26.1304 39.0605 26.863ZM46.1274 30.5199L46.1261 30.5181C45.8054 30.1013 45.4581 29.7192 45.0961 29.3835C44.331 28.6633 43.4267 28.0694 42.4514 27.6415C44.3011 26.1576 45.3863 23.9418 45.3863 21.5872C45.3863 19.8916 44.8396 18.2765 43.8033 16.9153C43.529 16.5586 43.2299 16.2291 42.9162 15.9374C41.4157 14.5266 39.4377 13.7501 37.3479 13.7501C34.2694 13.7501 32.5536 15.3992 31.6786 16.8379V14.7143H29.3164V39.2712H31.6786V29.1841H39.2675C42.8203 29.4913 45.601 32.4559 45.601 35.9406C45.601 39.6793 42.478 42.7232 38.6395 42.7263L38.247 42.7269V45.0338H38.6401C43.7804 45.03 47.9625 40.9514 47.9625 35.9406C47.9625 33.9731 47.3281 32.0992 46.1274 30.5199" fill="#00594C"/>
<path d="M23.0126 26.8627H10.7768V15.3798C10.7774 12.0907 13.5213 9.41472 16.8937 9.41472C20.2465 9.41472 22.9916 12.0721 23.0139 15.3395L23.0126 26.8627ZM23.7187 10.4403C23.4323 10.0668 23.1161 9.71879 22.7802 9.40543C21.1927 7.91478 19.1016 7.0936 16.8937 7.0936C14.6852 7.0936 12.5948 7.91479 11.0079 9.40419C10.6669 9.72189 10.3514 10.0712 10.0732 10.4372C9.95638 10.5877 9.85732 10.7276 9.77795 10.8546C8.87498 12.1966 8.39746 13.7616 8.39746 15.3798V39.2703H10.7768V29.1839H23.0126V39.2703H25.3919V15.3798C25.3919 13.5875 24.8141 11.8795 23.7194 10.4415L23.7187 10.4403Z" fill="#00594C"/>
</svg>