<svg width="419" height="104" viewBox="0 0 419 104" fill="none" xmlns="http://www.w3.org/2000/svg">
<path d="M116.174 30.9699V34.4624H130.03V30.9699H124.871V17.843H116.174V21.3356H121.331V30.9699H116.174Z" fill="#00594C"/>
<path d="M139.026 21.5168C141.256 21.5168 143.069 23.3032 143.069 25.4991C143.069 27.6987 141.256 29.4887 139.026 29.4887C136.8 29.4887 134.99 27.6987 134.99 25.4991C134.99 23.3032 136.8 21.5168 139.026 21.5168ZM139.026 32.9812C140.461 32.9812 141.865 32.5766 143.069 31.828V31.8973C143.063 34.0871 141.25 35.8747 139.027 35.8808L138.521 35.882V39.3745L139.03 39.3733C143.203 39.3672 146.603 36.0132 146.609 31.8985V25.5259L146.61 25.4991C146.61 21.3771 143.208 18.0231 139.026 18.0231C134.848 18.0231 131.448 21.3771 131.448 25.4991C131.448 29.6248 134.848 32.9812 139.026 32.9812" fill="#00594C"/>
<path d="M139.108 82.709C136.91 82.709 135.123 80.9421 135.123 78.7717C135.123 76.6037 136.91 74.8392 139.108 74.8392C141.308 74.8392 143.098 76.6037 143.098 78.7717C143.098 80.9421 141.308 82.709 139.108 82.709ZM139.108 65.0117C140.851 65.0117 142.269 66.408 142.269 68.1251C142.269 69.8459 140.851 71.2434 139.108 71.2434C137.367 71.2434 135.952 69.8459 135.952 68.1251C135.952 66.408 137.367 65.0117 139.108 65.0117ZM143.792 72.9957C145.149 71.7307 145.914 69.9893 145.914 68.1251C145.914 64.426 142.86 61.4159 139.108 61.4159C135.357 61.4159 132.307 64.426 132.307 68.1251C132.307 69.988 133.072 71.7295 134.428 72.9957C132.653 74.3957 131.611 76.5077 131.611 78.7717C131.611 82.8524 134.974 86.1724 139.108 86.1724C143.244 86.1724 146.611 82.8524 146.611 78.7717C146.611 76.5077 145.567 74.3957 143.792 72.9957" fill="#00594C"/>
<path d="M124.871 69.554H116.174V73.0465H121.331V82.6808H116.174V86.1733H130.03V82.6808H124.871V69.554Z" fill="#00594C"/>
<path d="M180.927 28.4515L184.205 37.0067H177.711L180.927 28.4515ZM174.34 45.9604L176.35 40.6208H185.597L187.638 45.9604H191.812L183.061 23.7426H178.979L170.259 45.9604H174.34Z" fill="#00594C"/>
<path d="M202.695 32.6291C205.51 32.6291 207.396 34.8518 207.396 37.7027C207.396 40.5548 205.51 42.7762 202.695 42.7762C199.912 42.7762 198.056 40.488 198.056 37.7027C198.056 34.8846 199.912 32.6291 202.695 32.6291ZM198.025 43.5722H198.181C199.2 45.2298 201.056 46.4243 203.407 46.4243C207.735 46.4912 210.982 42.9087 210.982 37.7355C210.982 32.6291 207.829 28.981 203.407 29.0151C201.088 29.0479 199.231 30.1756 198.181 31.7663H198.025V29.4793H194.5V52.5928H198.025V43.5722Z" fill="#00594C"/>
<path d="M215.869 45.96L219.455 40.5875L223.103 45.96H227.743L221.743 37.5045L227.402 29.4791H223.134L219.609 34.752L216.052 29.4791H211.446L217.26 37.6697L211.383 45.96H215.869Z" fill="#00594C"/>
<path d="M236.399 32.6292C239.184 32.6292 241.039 34.8846 241.039 37.7027C241.039 40.488 239.184 42.7763 236.399 42.7763C233.587 42.7763 231.7 40.5549 231.7 37.7027C231.7 34.8518 233.587 32.6292 236.399 32.6292ZM235.689 46.4244C238.101 46.4244 239.895 45.2298 240.914 43.5723H241.068V45.9602H244.594V29.4793H241.068V31.7664H240.914C239.895 30.1757 238.069 29.0479 235.689 29.0151C231.266 28.9811 228.111 32.6292 228.111 37.7355C228.111 42.9087 231.358 46.4912 235.689 46.4244" fill="#00594C"/>
<path d="M251.921 39.3941H259.498V45.96H263.054V29.4791H259.498V35.7472H251.921V29.4791H248.365V45.96H251.921V39.3941Z" fill="#00594C"/>
<path d="M270.382 33.1928H278.701V29.4791H266.826V45.96H270.382V33.1928Z" fill="#00594C"/>
<path d="M287.481 32.5295C289.647 32.5295 291.254 33.8565 291.718 35.9127H283.307C283.739 33.8893 285.349 32.5295 287.481 32.5295ZM287.543 46.4243C291.162 46.4243 294.161 44.3682 295.151 40.7869H291.471C290.852 42.1139 289.336 42.9427 287.607 42.9087C285.194 42.8431 283.523 41.1515 283.246 39.0297H295.398C295.863 33.3583 292.646 29.0151 287.543 29.0151C282.811 29.0151 279.564 32.8612 279.564 37.7367C279.564 42.4117 282.502 46.4243 287.543 46.4243" fill="#00594C"/>
<path d="M302.943 39.5598C303.005 38.0347 303.067 35.4488 303.067 33.1605H309.345V45.9604H312.901V29.4796H299.633C299.633 32.6963 299.633 37.9023 299.511 39.4614C299.324 42.2795 298.089 42.2795 297.129 42.2795H296.789V46.0601H297.438C299.418 46.0601 302.634 46.0601 302.943 39.5598" fill="#00594C"/>
<path d="M320.227 42.412V38.1016H325.269C326.412 38.1016 327.217 39.0957 327.217 40.2234C327.217 41.4167 326.412 42.412 325.269 42.412H320.227ZM330.742 40.2562C330.742 37.2716 328.609 34.6188 325.392 34.6188H320.227V29.4784H316.671V45.9604H325.392C328.609 45.9604 330.742 43.3076 330.742 40.2562Z" fill="#00594C"/>
<path d="M340.513 46.4248C344.626 46.4248 347.656 43.6067 348.337 39.7921H344.594C344.069 41.5506 342.491 42.7767 340.542 42.7767C337.729 42.7767 335.968 40.4885 335.968 37.736C335.968 34.9507 337.729 32.6965 340.542 32.6965C342.553 32.6965 344.069 33.9566 344.594 35.6142H348.337C347.656 31.8008 344.626 29.0156 340.513 29.0156C335.596 29.0156 332.41 32.8289 332.41 37.7032C332.41 42.5774 335.596 46.4248 340.513 46.4248Z" fill="#00594C"/>
<path d="M354.489 39.3273H357.086L361.632 45.96H365.901L360.087 37.4376L365.776 29.4791H361.662L357.149 35.8129H354.489V29.4791H350.931V45.96H354.489V39.3273Z" fill="#00594C"/>
<path d="M379.319 34.9172V45.96H382.876V29.4791H379.319L371.65 40.5547V29.4791H368.095V45.96H371.65L379.319 34.9172Z" fill="#00594C"/>
<path d="M393.481 32.5295C395.647 32.5295 397.254 33.8565 397.718 35.9127H389.307C389.739 33.8893 391.349 32.5295 393.481 32.5295ZM393.543 46.4243C397.162 46.4243 400.161 44.3682 401.151 40.7869H397.471C396.852 42.1139 395.336 42.9427 393.607 42.9087C391.194 42.8431 389.523 41.1515 389.246 39.0297H401.398C401.863 33.3583 398.646 29.0151 393.543 29.0151C388.811 29.0151 385.564 32.8612 385.564 37.7367C385.564 42.4117 388.502 46.4243 393.543 46.4243" fill="#00594C"/>
<path d="M180.525 72.858H174.958V69.6413H180.525C181.638 69.6413 182.164 70.4373 182.164 71.2333C182.164 72.0621 181.608 72.858 180.525 72.858ZM174.958 63.1423H179.968C181.051 63.1423 181.546 63.9043 181.546 64.7003C181.546 65.529 181.02 66.325 179.968 66.325H174.958V63.1423ZM183.246 67.7177V67.618C184.545 66.8561 185.102 65.495 185.102 64.1704C185.102 61.9466 183.618 59.7592 180.433 59.7592H171.402V76.2412H181.082C184.175 76.2412 185.751 73.8861 185.751 71.565C185.751 69.9731 185.009 68.3799 183.246 67.7177" fill="#00594C"/>
<path d="M195.831 73.0575C192.987 73.0575 191.1 70.802 191.1 68.0167C191.1 65.1974 192.955 62.976 195.831 62.976C198.615 62.976 200.47 65.1974 200.47 68.0167C200.47 70.768 198.615 73.0575 195.831 73.0575ZM195.831 59.2951C190.79 59.2951 187.513 63.1085 187.513 67.9827C187.513 72.8582 190.821 76.7056 195.831 76.7056C200.748 76.7056 204.026 72.8582 204.026 67.9827C204.026 63.1085 200.779 59.2951 195.831 59.2951Z" fill="#00594C"/>
<path d="M217.692 72.5921H210.89C211.138 71.7961 211.321 70.7681 211.384 69.4763C211.447 67.9828 211.476 65.5949 211.507 63.4403H217.692V72.5921ZM221.249 59.7582H208.105C208.074 62.9761 208.074 68.2149 207.982 69.8068C207.796 72.5921 206.528 72.5921 205.57 72.5921H205.199V80.186H208.632V76.2402H220.444V80.186H223.877V72.5921H221.249V59.7582Z" fill="#00594C"/>
<path d="M233.184 73.0575C230.339 73.0575 228.452 70.802 228.452 68.0167C228.452 65.1974 230.308 62.976 233.184 62.976C235.968 62.976 237.823 65.1974 237.823 68.0167C237.823 70.768 235.968 73.0575 233.184 73.0575ZM233.184 59.2951C228.143 59.2951 224.866 63.1085 224.866 67.9827C224.866 72.8582 228.175 76.7056 233.184 76.7056C238.1 76.7056 241.378 72.8582 241.378 67.9827C241.378 63.1085 238.132 59.2951 233.184 59.2951Z" fill="#00594C"/>
<path d="M252.325 62.9094C255.14 62.9094 257.024 65.132 257.024 67.9829C257.024 70.8339 255.14 73.0565 252.325 73.0565C249.542 73.0565 247.685 70.7682 247.685 67.9829C247.685 65.1636 249.542 62.9094 252.325 62.9094ZM244.13 59.7595V82.873H247.655V73.8525H247.81C248.83 75.51 250.685 76.7046 253.037 76.7046C257.365 76.7714 260.612 73.1902 260.612 68.0158C260.612 62.9094 257.459 59.2613 253.037 59.2941C250.716 59.3281 248.86 60.4547 247.81 62.0478H247.655V59.7595H244.13Z" fill="#00594C"/>
<path d="M270.878 62.976C273.662 62.976 275.517 65.1974 275.517 68.0155C275.517 70.768 273.662 73.0575 270.878 73.0575C268.032 73.0575 266.145 70.8008 266.145 68.0155C266.145 65.1974 268.002 62.976 270.878 62.976ZM270.878 76.7056C275.794 76.7056 279.072 72.8582 279.072 67.9827C279.072 63.1085 275.826 59.2951 270.878 59.2951C265.836 59.2951 262.56 63.1085 262.56 67.9827C262.56 72.8582 265.868 76.7056 270.878 76.7056Z" fill="#00594C"/>
<path d="M289.182 62.9758C291.192 62.9758 292.707 64.2359 293.233 65.8935H296.975C296.296 62.0801 293.264 59.2949 289.151 59.2949C284.234 59.2949 281.05 63.1082 281.05 67.9825C281.05 72.8567 284.234 76.7041 289.151 76.7041C293.264 76.7041 296.296 73.8872 296.975 70.0714H293.233C292.707 71.8299 291.131 73.056 289.182 73.056C286.369 73.056 284.606 70.7677 284.606 68.0153C284.606 65.23 286.369 62.9758 289.182 62.9758Z" fill="#00594C"/>
<path d="M300.901 69.7405C300.716 72.5586 299.478 72.5586 298.518 72.5586H298.18V76.3403H298.829C300.808 76.3403 304.025 76.3403 304.334 69.8401C304.395 68.315 304.457 65.7278 304.457 63.4396H310.734V76.2407H314.291V59.7599H301.025C301.025 62.9766 301.025 68.1826 300.901 69.7405Z" fill="#00594C"/>
<path d="M321.619 70.8344V59.7589H318.062V76.2397H321.619L329.289 65.1958V76.2397H332.844V59.7589H329.289L321.619 70.8344Z" fill="#00594C"/>
<path d="M414.072 98.4804H160.008V4.86101H414.072V98.4804ZM4.92712 4.86223H102.775V98.4816H4.92712V4.86223ZM155.082 49.2421H107.702V4.86101H155.082V49.2421ZM107.702 54.103H155.082V98.4816H107.702V54.103ZM0 103.341H419V0.000125896H0V103.341Z" fill="#00594C"/>
<path d="M75.7689 52.7124H61.4494V42.2761C61.495 36.3385 66.4307 31.508 72.4529 31.508C78.5219 31.508 83.4589 36.3762 83.4589 42.3599C83.4589 47.1284 80.3733 51.2748 75.7689 52.7124ZM89.4774 59.8883L89.4749 59.8846C88.8528 59.0668 88.1791 58.317 87.4769 57.6583C85.9926 56.245 84.2386 55.0796 82.3466 54.2399C85.9348 51.3282 88.0399 46.9802 88.0399 42.3599C88.0399 39.0326 86.9793 35.8633 84.969 33.1923C84.4369 32.4923 83.8567 31.8458 83.2482 31.2734C80.3375 28.5052 76.5005 26.9813 72.4468 26.9813C66.4751 26.9813 63.1468 30.2174 61.4494 33.0404V28.8734H56.8672V77.0605H61.4494V57.267H76.1704C83.0622 57.8698 88.4562 63.687 88.4562 70.5251C88.4562 77.8614 82.3983 83.8342 74.9522 83.8403L74.191 83.8415V88.3682H74.9534C84.9247 88.3609 93.0372 80.3574 93.0372 70.5251C93.0372 66.6643 91.8067 62.9871 89.4774 59.8883" fill="#00594C"/>
<path d="M44.6407 52.7116H20.9055V30.179C20.9068 23.725 26.2293 18.474 32.7713 18.474C39.2751 18.474 44.6001 23.6885 44.6432 30.1L44.6407 52.7116ZM46.0104 20.4864C45.4549 19.7536 44.8415 19.0707 44.1899 18.4558C41.1104 15.5307 37.0542 13.9194 32.7713 13.9194C28.4871 13.9194 24.4321 15.5307 21.3539 18.4534C20.6924 19.0768 20.0802 19.7621 19.5407 20.4803C19.3141 20.7756 19.1219 21.0503 18.9679 21.2994C17.2163 23.9328 16.29 27.0036 16.29 30.179V77.0586H20.9055V57.2663H44.6407V77.0586H49.2562V30.179C49.2562 26.6622 48.1353 23.3106 46.0117 20.4888L46.0104 20.4864Z" fill="#00594C"/>
</svg>
