<svg width="302" height="805" viewBox="0 0 302 805" fill="none" xmlns="http://www.w3.org/2000/svg">
<g opacity="0.4" clip-path="url(#clip0_609_28245)">
<path d="M271.332 321.199C271.335 323.628 270.859 326.034 269.931 328.278C269.004 330.523 267.642 332.563 265.925 334.282C264.208 336 262.17 337.364 259.925 338.294C257.681 339.224 255.275 339.703 252.845 339.703V302.718C257.748 302.718 262.451 304.665 265.918 308.131C269.385 311.597 271.332 316.297 271.332 321.199Z" fill="#CAEFE7"/>
<path d="M203.735 388.774C203.729 382.323 204.995 375.934 207.46 369.972C209.926 364.011 213.542 358.594 218.102 354.03C222.663 349.466 228.079 345.846 234.04 343.376C240.001 340.906 246.391 339.635 252.844 339.635V437.799C239.831 437.799 227.351 432.636 218.143 423.444C208.935 414.252 203.753 401.782 203.735 388.774Z" fill="#CAEFE7"/>
<path d="M301.953 486.961C301.947 499.977 296.77 512.458 287.561 521.66C278.352 530.862 265.865 536.031 252.845 536.031V437.867C265.869 437.867 278.36 443.039 287.57 452.246C296.779 461.453 301.953 473.94 301.953 486.961Z" fill="#CAEFE7"/>
<path d="M234.358 750.288C234.358 745.381 236.308 740.674 239.779 737.204C243.25 733.734 247.958 731.784 252.867 731.784V768.77C247.962 768.77 243.258 766.823 239.787 763.358C236.317 759.893 234.364 755.192 234.358 750.288Z" fill="#CAEFE7"/>
<path d="M203.735 584.527C203.729 578.076 204.995 571.687 207.46 565.726C209.926 559.764 213.542 554.347 218.102 549.783C222.663 545.22 228.079 541.6 234.04 539.13C240.001 536.66 246.391 535.388 252.844 535.388V633.552C239.831 633.552 227.351 628.389 218.143 619.197C208.935 610.005 203.753 597.536 203.735 584.527Z" fill="#CAEFE7"/>
<path d="M301.953 682.714C301.947 695.73 296.77 708.212 287.561 717.414C278.352 726.615 265.865 731.785 252.845 731.785V633.621C265.869 633.621 278.36 638.793 287.57 648C296.779 657.206 301.953 669.694 301.953 682.714Z" fill="#CAEFE7"/>
<path d="M127.664 293.591C127.667 301.453 126.12 309.238 123.112 316.502C120.104 323.766 115.694 330.366 110.133 335.925C104.572 341.484 97.9703 345.893 90.7043 348.9C83.4383 351.907 75.6506 353.453 67.7866 353.45V233.732C83.667 233.732 98.8971 240.039 110.126 251.265C121.355 262.49 127.664 277.716 127.664 293.591Z" fill="#CAEFE7"/>
<path d="M49.3025 18.9003C49.3085 14.0007 51.2579 9.30343 54.7236 5.83885C58.1892 2.37427 62.8879 0.425212 67.7891 0.419189V37.4042C62.884 37.3982 58.1821 35.446 54.7158 31.9765C51.2495 28.507 49.3025 23.8039 49.3025 18.9003Z" fill="#CAEFE7"/>
<path d="M18.7037 184.662C18.7037 171.645 23.874 159.162 33.0787 149.956C42.2835 140.749 54.7686 135.574 67.7891 135.568V233.732C54.7707 233.732 42.2858 228.562 33.0804 219.36C23.875 210.157 18.7037 197.676 18.7037 184.662Z" fill="#CAEFE7"/>
<path d="M18.7037 402.544C18.7037 389.527 23.874 377.043 33.0787 367.837C42.2835 358.631 54.7686 353.456 67.7891 353.45V451.614C54.7707 451.614 42.2858 446.444 33.0804 437.242C23.875 428.039 18.7037 415.558 18.7037 402.544Z" fill="#CAEFE7"/>
<path d="M116.895 86.4749C116.895 99.4953 111.721 111.982 102.511 121.189C93.3015 130.396 80.8102 135.568 67.7859 135.568V37.4043C80.8063 37.4043 93.2938 42.5735 102.503 51.7754C111.712 60.9773 116.888 73.4585 116.895 86.4749Z" fill="#CAEFE7"/>
<path d="M116.895 500.707C116.895 513.728 111.721 526.215 102.511 535.422C93.3015 544.628 80.8102 549.801 67.7859 549.801V451.614C80.8102 451.614 93.3015 456.786 102.511 465.993C111.721 475.2 116.895 487.687 116.895 500.707Z" fill="#CAEFE7"/>
<path d="M127.664 707.61C127.667 715.471 126.12 723.256 123.112 730.52C120.104 737.784 115.694 744.384 110.133 749.943C104.572 755.502 97.9703 759.911 90.7043 762.918C83.4383 765.925 75.6506 767.472 67.7866 767.469V647.751C83.667 647.751 98.8971 654.057 110.126 665.283C121.355 676.509 127.664 691.734 127.664 707.61Z" fill="#CAEFE7"/>
<path d="M18.7037 598.68C18.7037 585.664 23.874 573.18 33.0787 563.974C42.2835 554.768 54.7686 549.593 67.7891 549.587V647.751C54.7707 647.751 42.2858 642.581 33.0804 633.379C23.875 624.176 18.7037 611.695 18.7037 598.68Z" fill="#CAEFE7"/>
<path d="M100.587 402.726C100.587 386.85 106.896 371.625 118.125 360.399C129.354 349.173 144.584 342.867 160.465 342.867V462.539C152.605 462.542 144.821 460.997 137.558 457.993C130.295 454.989 123.695 450.584 118.135 445.03C112.574 439.476 108.163 432.881 105.152 425.622C102.141 418.364 100.59 410.584 100.587 402.726Z" fill="#CAEFE7"/>
<path d="M179.043 127.967C179.043 132.87 177.096 137.573 173.63 141.043C170.163 144.512 165.461 146.464 160.556 146.471V109.554C165.445 109.56 170.134 111.499 173.597 114.949C177.061 118.399 179.019 123.079 179.043 127.967Z" fill="#CAEFE7"/>
<path d="M142.949 774.931C142.949 779.835 144.896 784.538 148.363 788.008C151.829 791.477 156.531 793.429 161.436 793.435V756.519C156.547 756.525 151.858 758.464 148.395 761.914C144.931 765.364 142.973 770.044 142.949 774.931Z" fill="#CAEFE7"/>
<path d="M50.0234 785.698C50.0234 790.602 51.9704 795.305 55.4367 798.774C58.903 802.244 63.6054 804.196 68.5106 804.202V767.285C63.6212 767.291 58.9327 769.231 55.469 772.681C52.0053 776.13 50.0475 780.81 50.0234 785.698Z" fill="#CAEFE7"/>
<path d="M111.356 195.609C111.362 182.593 116.539 170.112 125.748 160.91C134.957 151.708 147.444 146.539 160.465 146.539V244.703C147.44 244.703 134.949 239.53 125.74 230.323C116.53 221.117 111.356 208.63 111.356 195.609Z" fill="#CAEFE7"/>
<path d="M209.551 293.796C209.551 306.811 204.379 319.292 195.174 328.494C185.969 337.697 173.484 342.867 160.465 342.867V244.703C166.913 244.703 173.298 245.973 179.255 248.44C185.212 250.908 190.624 254.524 195.182 259.083C199.741 263.642 203.356 269.055 205.821 275.011C208.287 280.967 209.554 287.35 209.551 293.796Z" fill="#CAEFE7"/>
<path d="M111.356 609.628C111.362 596.611 116.539 584.13 125.748 574.928C134.957 565.726 147.444 560.557 160.465 560.557V658.721C147.44 658.721 134.949 653.549 125.74 644.342C116.53 635.135 111.356 622.648 111.356 609.628Z" fill="#CAEFE7"/>
<path d="M209.551 707.815C209.551 720.829 204.379 733.31 195.174 742.513C185.969 751.715 173.484 756.885 160.465 756.885V658.721C166.913 658.721 173.298 659.991 179.255 662.459C185.212 664.926 190.624 668.543 195.182 673.102C199.741 677.661 203.356 683.073 205.821 689.029C208.287 694.985 209.554 701.369 209.551 707.815Z" fill="#CAEFE7"/>
<path d="M209.551 511.678C209.551 524.692 204.379 537.174 195.174 546.376C185.969 555.579 173.484 560.749 160.465 560.749V462.539C166.916 462.542 173.303 463.816 179.262 466.287C185.22 468.758 190.634 472.379 195.192 476.942C199.75 481.506 203.364 486.922 205.828 492.882C208.292 498.842 209.557 505.229 209.551 511.678Z" fill="#CAEFE7"/>
<path d="M23.6992 284.008C23.6992 297.023 18.5279 309.504 9.32251 318.707C0.117136 327.909 -12.3678 333.079 -25.3861 333.079V234.915C-18.9382 234.915 -12.5535 236.185 -6.59665 238.653C-0.639801 241.12 4.77251 244.737 9.33084 249.296C13.8892 253.855 17.5041 259.267 19.9696 265.223C22.435 271.179 23.7022 277.562 23.6992 284.008Z" fill="#CAEFE7"/>
<path d="M23.6992 698.027C23.6992 711.041 18.5279 723.523 9.32251 732.725C0.117136 741.928 -12.3678 747.098 -25.3861 747.098V648.934C-18.9382 648.934 -12.5535 650.204 -6.59665 652.671C-0.639801 655.139 4.77251 658.755 9.33084 663.314C13.8892 667.873 17.5041 673.285 19.9696 679.241C22.435 685.198 23.7022 691.581 23.6992 698.027Z" fill="#CAEFE7"/>
<path d="M23.6992 501.89C23.6992 514.904 18.5279 527.386 9.32249 536.588C0.117115 545.791 -12.3678 550.961 -25.3862 550.961V452.751C-18.9352 452.754 -12.5485 454.028 -6.59 456.499C-0.631538 458.97 4.78194 462.591 9.34027 467.154C13.8986 471.718 17.5129 477.134 19.9768 483.094C22.4406 489.054 23.7052 495.441 23.6992 501.89Z" fill="#CAEFE7"/>
</g>
<defs>
<clipPath id="clip0_609_28245">
<rect width="472" height="804" fill="white" transform="matrix(-1 0 0 1 302 0.273193)"/>
</clipPath>
</defs>
</svg>
