<svg width="146" height="521" viewBox="0 0 146 521" fill="none" xmlns="http://www.w3.org/2000/svg">
<g opacity="0.4">
<path d="M79.6523 85.051C79.6561 88.0712 80.8587 90.9666 82.9963 93.1021C85.1338 95.2377 88.0318 96.4391 91.0548 96.4428V73.6453C88.0294 73.649 85.1291 74.8523 82.9911 76.9909C80.8532 79.1295 79.6523 82.0285 79.6523 85.051Z" fill="#CAEFE7"/>
<path d="M121.348 126.704C121.348 122.731 120.564 118.795 119.042 115.124C117.52 111.453 115.289 108.117 112.476 105.307C109.663 102.497 106.324 100.268 102.65 98.7468C98.9747 97.2261 95.0362 96.4434 91.0586 96.4434V156.966C95.0362 156.966 98.9747 156.183 102.65 154.662C106.324 153.141 109.663 150.912 112.476 148.102C115.289 145.292 117.52 141.956 119.042 138.285C120.564 134.613 121.348 130.678 121.348 126.704Z" fill="#CAEFE7"/>
<path d="M121.348 247.65C121.348 243.676 120.564 239.741 119.042 236.07C117.52 232.398 115.289 229.062 112.476 226.252C109.663 223.442 106.324 221.213 102.65 219.693C98.9747 218.172 95.0362 217.389 91.0586 217.389V277.911C95.0362 277.911 98.9747 277.129 102.65 275.608C106.324 274.087 109.663 271.858 112.476 269.048C115.289 266.238 117.52 262.902 119.042 259.231C120.564 255.559 121.348 251.624 121.348 247.65Z" fill="#CAEFE7"/>
<path d="M60.8516 187.255C60.8515 195.264 64.0316 202.947 69.6941 208.618C75.3566 214.288 83.0391 217.483 91.0563 217.502V156.993C83.0378 157.016 75.3551 160.214 69.6931 165.886C64.031 171.559 60.8515 179.243 60.8516 187.255Z" fill="#CAEFE7"/>
<path d="M117.836 52.9337C117.836 60.9557 121.026 68.6492 126.703 74.3216C132.381 79.994 140.082 83.1808 148.111 83.1808V22.6726C144.134 22.6726 140.196 23.4554 136.522 24.9764C132.848 26.4973 129.51 28.7265 126.698 31.5367C123.887 34.3469 121.657 37.683 120.136 41.3543C118.616 45.0257 117.834 48.9604 117.836 52.9337Z" fill="#CAEFE7"/>
<path d="M117.836 174.654C117.836 182.676 121.025 190.369 126.703 196.042C132.381 201.714 140.082 204.901 148.111 204.901V144.393C140.08 144.397 132.38 147.586 126.702 153.261C121.025 158.936 117.836 166.631 117.836 174.654Z" fill="#CAEFE7"/>
<path d="M102.92 471.738C102.92 470.24 102.625 468.757 102.051 467.373C101.477 465.989 100.637 464.732 99.5765 463.673C98.5164 462.614 97.2576 461.773 95.8726 461.2C94.4875 460.627 93.0031 460.332 91.5039 460.332V483.13C93.0025 483.131 94.4865 482.838 95.8715 482.266C97.2565 481.695 98.5151 480.856 99.5754 479.798C100.636 478.74 101.477 477.484 102.051 476.101C102.625 474.717 102.92 473.235 102.92 471.738Z" fill="#CAEFE7"/>
<path d="M19.668 327.811C19.6717 330.831 20.8744 333.726 23.0119 335.862C25.1494 337.997 28.0475 339.199 31.0704 339.203V316.405C28.045 316.409 25.1447 317.612 23.0068 319.751C20.8688 321.889 19.668 324.788 19.668 327.811Z" fill="#CAEFE7"/>
<path d="M61.3633 369.464C61.3633 365.49 60.5796 361.555 59.0575 357.884C57.5353 354.212 55.3043 350.876 52.4917 348.066C49.6791 345.256 46.34 343.027 42.6652 341.507C38.9904 339.986 35.0518 339.203 31.0742 339.203V399.725C35.0518 399.725 38.9904 398.943 42.6652 397.422C46.34 395.901 49.6791 393.672 52.4917 390.862C55.3043 388.052 57.5353 384.716 59.0575 381.045C60.5796 377.373 61.3633 373.438 61.3633 369.464Z" fill="#CAEFE7"/>
<path d="M121.734 369.464C121.734 361.438 118.543 353.741 112.863 348.066C107.182 342.391 99.4785 339.203 91.4453 339.203V399.725C99.4785 399.725 107.182 396.537 112.863 390.862C118.543 385.187 121.734 377.49 121.734 369.464Z" fill="#CAEFE7"/>
<path d="M61.3633 490.41C61.3633 486.436 60.5796 482.501 59.0575 478.829C57.5353 475.158 55.3043 471.822 52.4917 469.012C49.6791 466.202 46.34 463.973 42.6652 462.452C38.9904 460.931 35.0518 460.149 31.0742 460.149V520.671C35.0518 520.671 38.9904 519.888 42.6652 518.367C46.34 516.847 49.6791 514.618 52.4917 511.808C55.3043 508.998 57.5353 505.662 59.0575 501.99C60.5796 498.319 61.3633 494.384 61.3633 490.41Z" fill="#CAEFE7"/>
<path d="M0.867188 430.014C0.867166 438.024 4.04724 445.707 9.70972 451.377C15.3722 457.047 23.0547 460.242 31.0719 460.261V399.753C23.0534 399.775 15.3708 402.973 9.70869 408.646C4.04661 414.318 0.867156 422.003 0.867188 430.014Z" fill="#CAEFE7"/>
<path d="M61.168 308.956C61.168 316.978 64.3575 324.672 70.0352 330.344C75.7128 336.017 83.4136 339.204 91.443 339.204V278.695C87.4661 278.695 83.5281 279.478 79.8541 280.999C76.1801 282.52 72.8419 284.749 70.0304 287.559C67.2189 290.37 64.989 293.706 63.4683 297.377C61.9477 301.048 61.1661 304.983 61.168 308.956Z" fill="#CAEFE7"/>
<path d="M61.168 430.014C61.168 438.036 64.3575 445.729 70.0352 451.402C75.7128 457.074 83.4136 460.261 91.443 460.261V399.753C83.4123 399.756 75.7118 402.946 70.0345 408.621C64.3572 414.296 61.168 421.99 61.168 430.014Z" fill="#CAEFE7"/>
<path d="M117.781 295.572C117.785 303.595 120.978 311.289 126.658 316.961C132.338 322.633 140.04 325.819 148.07 325.819V265.255C144.088 265.255 140.145 266.039 136.466 267.563C132.788 269.088 129.446 271.322 126.633 274.138C123.82 276.954 121.59 280.296 120.071 283.974C118.552 287.652 117.774 291.593 117.781 295.572Z" fill="#CAEFE7"/>
<path d="M117.781 429.874C117.785 437.897 120.978 445.591 126.658 451.263C132.338 456.935 140.04 460.121 148.07 460.121V399.613C144.093 399.613 140.154 400.396 136.479 401.916C132.805 403.437 129.466 405.666 126.653 408.476C123.84 411.286 121.609 414.622 120.087 418.293C118.565 421.965 117.781 425.9 117.781 429.874Z" fill="#CAEFE7"/>
</g>
</svg>
