<svg width="157" height="757" viewBox="0 0 157 757" fill="none" xmlns="http://www.w3.org/2000/svg">
<g opacity="0.4">
<path d="M84.0605 197.643C84.0645 201.514 85.3477 205.226 87.6282 207.963C89.9087 210.701 93.0007 212.241 96.2258 212.245V183.022C92.9981 183.027 89.9037 184.57 87.6227 187.311C85.3417 190.052 84.0605 193.768 84.0605 197.643V197.643Z" fill="#CAEFE7"/>
<path d="M128.542 251.036C128.542 245.942 127.706 240.897 126.082 236.191C124.458 231.485 122.078 227.209 119.077 223.607C116.076 220.005 112.514 217.147 108.593 215.198C104.672 213.249 100.47 212.245 96.2266 212.245V289.826C100.47 289.826 104.672 288.822 108.593 286.873C112.514 284.924 116.076 282.066 119.077 278.464C122.078 274.862 124.458 270.586 126.082 265.88C127.706 261.174 128.542 256.13 128.542 251.036V251.036Z" fill="#CAEFE7"/>
<path d="M128.542 406.07C128.542 400.976 127.706 395.932 126.082 391.225C124.458 386.519 122.078 382.243 119.077 378.641C116.076 375.039 112.514 372.181 108.593 370.232C104.672 368.283 100.47 367.279 96.2266 367.279V444.86C100.47 444.86 104.672 443.857 108.593 441.908C112.514 439.958 116.076 437.101 119.077 433.499C122.078 429.897 124.458 425.621 126.082 420.914C127.706 416.208 128.542 411.164 128.542 406.07V406.07Z" fill="#CAEFE7"/>
<path d="M64 328.652C64 338.919 67.3928 348.767 73.4341 356.036C79.4754 363.305 87.6719 367.4 96.2255 367.424V289.861C87.6705 289.89 79.4739 293.989 73.433 301.261C67.3921 308.532 64 318.382 64 328.652V328.652Z" fill="#CAEFE7"/>
<path d="M125.336 157.854C125.336 168.138 128.739 177.999 134.796 185.271C140.854 192.542 149.07 196.627 157.636 196.627V119.064C153.393 119.064 149.192 120.068 145.272 122.017C141.352 123.967 137.791 126.825 134.791 130.427C131.792 134.029 129.413 138.305 127.79 143.011C126.168 147.718 125.334 152.761 125.336 157.854V157.854Z" fill="#CAEFE7"/>
<path d="M125.336 313.032C125.336 323.315 128.739 333.177 134.796 340.449C140.854 347.72 149.07 351.805 157.636 351.805V274.242C149.068 274.247 140.853 278.336 134.796 285.61C128.739 292.884 125.336 302.748 125.336 313.032V313.032Z" fill="#CAEFE7"/>
<path d="M108.879 693.315C108.879 691.395 108.564 689.494 107.952 687.72C107.34 685.946 106.443 684.335 105.312 682.977C104.181 681.619 102.838 680.542 101.36 679.808C99.8824 679.073 98.2987 678.695 96.6992 678.695V707.917C98.298 707.92 99.8814 707.544 101.359 706.811C102.837 706.078 104.18 705.003 105.311 703.647C106.442 702.291 107.339 700.68 107.952 698.907C108.564 697.135 108.879 695.234 108.879 693.315V693.315Z" fill="#CAEFE7"/>
<path d="M20.0605 508.824C20.0645 512.695 21.3477 516.407 23.6282 519.144C25.9087 521.881 29.0007 523.422 32.2258 523.426V494.203C28.9981 494.208 25.9037 495.75 23.6227 498.492C21.3417 501.233 20.0605 504.949 20.0605 508.824V508.824Z" fill="#CAEFE7"/>
<path d="M64.542 562.216C64.542 557.122 63.7059 552.078 62.0819 547.372C60.4579 542.666 58.0776 538.39 55.0768 534.788C52.076 531.186 48.5136 528.328 44.593 526.379C40.6723 524.43 36.4703 523.426 32.2266 523.426V601.006C36.4703 601.006 40.6723 600.003 44.593 598.054C48.5136 596.104 52.076 593.247 55.0768 589.645C58.0776 586.043 60.4579 581.767 62.0819 577.061C63.7059 572.354 64.542 567.31 64.542 562.216V562.216Z" fill="#CAEFE7"/>
<path d="M128.954 562.216C128.954 551.929 125.549 542.062 119.489 534.788C113.429 527.513 105.209 523.426 96.6387 523.426V601.006C105.209 601.006 113.429 596.92 119.489 589.645C125.549 582.37 128.954 572.504 128.954 562.216V562.216Z" fill="#CAEFE7"/>
<path d="M64.542 717.25C64.542 712.156 63.7059 707.112 62.0819 702.406C60.4579 697.7 58.0776 693.424 55.0768 689.822C52.076 686.22 48.5136 683.363 44.593 681.413C40.6723 679.464 36.4703 678.46 32.2266 678.46V756.041C36.4703 756.041 40.6723 755.037 44.593 753.088C48.5136 751.138 52.076 748.281 55.0768 744.679C58.0776 741.077 60.4579 736.801 62.0819 732.095C63.7059 727.389 64.542 722.344 64.542 717.25V717.25Z" fill="#CAEFE7"/>
<path d="M2.42537e-10 639.832C-2.30016e-05 650.1 3.3928 659.948 9.4341 667.217C15.4754 674.485 23.6719 678.581 32.2255 678.604V601.042C23.6705 601.071 15.4739 605.17 9.433 612.441C3.39213 619.713 -3.30971e-05 629.563 2.42537e-10 639.832V639.832Z" fill="#CAEFE7"/>
<path d="M64.3359 484.654C64.3359 494.937 67.7389 504.799 73.7964 512.07C79.8539 519.341 88.0698 523.426 96.6364 523.426V445.864C92.3934 445.864 88.192 446.867 84.2721 448.817C80.3523 450.766 76.7908 453.624 73.7912 457.226C70.7917 460.828 68.4126 465.105 66.7902 469.811C65.1678 474.517 64.334 479.561 64.3359 484.654V484.654Z" fill="#CAEFE7"/>
<path d="M64.3359 639.832C64.3359 650.115 67.7389 659.977 73.7964 667.248C79.8539 674.52 88.0698 678.604 96.6364 678.604V601.042C88.0684 601.047 79.8527 605.136 73.7956 612.41C67.7386 619.684 64.3359 629.548 64.3359 639.832V639.832Z" fill="#CAEFE7"/>
<path d="M124.736 467.498C124.74 477.782 128.147 487.644 134.207 494.915C140.267 502.185 148.484 506.27 157.052 506.27V428.636C152.803 428.636 148.596 429.641 144.672 431.595C140.747 433.549 137.182 436.413 134.18 440.022C131.179 443.632 128.8 447.917 127.179 452.631C125.559 457.346 124.729 462.398 124.736 467.498V467.498Z" fill="#CAEFE7"/>
<path d="M124.736 639.653C124.74 649.937 128.147 659.799 134.207 667.07C140.267 674.34 148.484 678.425 157.052 678.425V600.863C152.808 600.863 148.606 601.866 144.685 603.816C140.765 605.765 137.202 608.622 134.202 612.224C131.201 615.826 128.82 620.102 127.196 624.809C125.572 629.515 124.736 634.559 124.736 639.653V639.653Z" fill="#CAEFE7"/>
</g>
</svg>
