<svg width="487" height="765" viewBox="0 0 487 765" fill="none" xmlns="http://www.w3.org/2000/svg">
<g opacity="0.4">
<path d="M441.289 478.451C441.294 482.073 440.583 485.662 439.198 489.01C437.813 492.358 435.781 495.401 433.218 497.964C430.655 500.527 427.612 502.561 424.261 503.948C420.911 505.336 417.32 506.05 413.693 506.05V450.886C421.012 450.886 428.031 453.79 433.207 458.959C438.382 464.129 441.289 471.14 441.289 478.451Z" fill="#CAEFE7"/>
<path d="M340.384 579.24C340.375 569.618 342.265 560.089 345.945 551.198C349.625 542.306 355.023 534.226 361.831 527.419C368.639 520.612 376.723 515.213 385.622 511.528C394.52 507.844 404.059 505.948 413.691 505.948V652.362C394.267 652.362 375.636 644.661 361.891 630.951C348.147 617.241 340.411 598.642 340.384 579.24Z" fill="#CAEFE7"/>
<path d="M487 725.688C486.991 745.103 479.263 763.719 465.517 777.443C451.77 791.168 433.13 798.878 413.694 798.878V652.464C433.136 652.464 451.781 660.179 465.529 673.911C479.277 687.643 487 706.268 487 725.688Z" fill="#CAEFE7"/>
<path d="M226.832 437.273C226.836 448.999 224.528 460.611 220.037 471.445C215.547 482.279 208.963 492.123 200.662 500.414C192.362 508.705 182.506 515.282 171.66 519.767C160.814 524.252 149.189 526.558 137.45 526.554V347.992C161.155 347.992 183.89 357.398 200.652 374.142C217.415 390.885 226.832 413.594 226.832 437.273Z" fill="#CAEFE7"/>
<path d="M109.851 27.5651C109.86 20.2571 112.77 13.2511 117.944 8.08355C123.117 2.91604 130.131 0.00898336 137.447 0V55.1641C130.125 55.1551 123.106 52.2434 117.932 47.0686C112.758 41.8937 109.851 34.8789 109.851 27.5651Z" fill="#CAEFE7"/>
<path d="M64.1747 274.802C64.1747 255.388 71.8928 236.768 85.6332 223.037C99.3736 209.306 118.011 201.587 137.447 201.578V347.992C118.014 347.992 99.3771 340.281 85.6357 326.555C71.8943 312.83 64.1747 294.213 64.1747 274.802Z" fill="#CAEFE7"/>
<path d="M64.1747 599.778C64.1747 580.364 71.8928 561.744 85.6332 548.013C99.3736 534.282 118.011 526.563 137.447 526.554V672.968C118.014 672.968 99.3771 665.257 85.6357 651.531C71.8943 637.806 64.1747 619.189 64.1747 599.778Z" fill="#CAEFE7"/>
<path d="M210.756 128.354C210.756 147.775 203.033 166.399 189.285 180.132C175.537 193.864 156.891 201.578 137.449 201.578V55.1644C156.885 55.1644 175.526 62.8744 189.273 76.5992C203.019 90.324 210.747 108.94 210.756 128.354Z" fill="#CAEFE7"/>
<path d="M210.756 746.192C210.756 765.612 203.033 784.237 189.285 797.969C175.537 811.701 156.891 819.416 137.449 819.416V672.968C156.891 672.968 175.537 680.682 189.285 694.415C203.033 708.147 210.756 726.771 210.756 746.192Z" fill="#CAEFE7"/>
<path d="M186.41 600.05C186.41 576.371 195.828 553.662 212.59 536.918C229.352 520.175 252.087 510.769 275.793 510.769V689.263C264.06 689.267 252.44 686.963 241.598 682.482C230.756 678.001 220.904 671.431 212.604 663.147C204.304 654.863 197.718 645.027 193.224 634.2C188.73 623.374 186.415 611.77 186.41 600.05Z" fill="#CAEFE7"/>
<path d="M303.523 190.24C303.523 197.554 300.617 204.568 295.443 209.743C290.268 214.918 283.249 217.83 275.927 217.839V162.777C283.225 162.785 290.224 165.679 295.395 170.824C300.565 175.97 303.488 182.95 303.523 190.24Z" fill="#CAEFE7"/>
<path d="M202.486 291.131C202.495 271.716 210.222 253.1 223.969 239.375C237.716 225.651 256.357 217.941 275.793 217.941V364.355C256.351 364.355 237.704 356.64 223.957 342.908C210.209 329.176 202.486 310.551 202.486 291.131Z" fill="#CAEFE7"/>
<path d="M349.062 437.579C349.062 456.99 341.343 475.606 327.602 489.332C313.86 503.058 295.223 510.769 275.79 510.769V364.355C285.415 364.355 294.946 366.249 303.838 369.929C312.73 373.61 320.81 379.004 327.614 385.804C334.418 392.604 339.815 400.676 343.495 409.56C347.175 418.443 349.067 427.964 349.062 437.579Z" fill="#CAEFE7"/>
<path d="M349.062 762.555C349.062 781.966 341.343 800.582 327.602 814.308C313.86 828.034 295.223 835.745 275.79 835.745V689.263C285.42 689.267 294.954 691.167 303.848 694.853C312.743 698.539 320.824 703.939 327.628 710.746C334.433 717.552 339.828 725.631 343.506 734.52C347.184 743.41 349.071 752.936 349.062 762.555Z" fill="#CAEFE7"/>
<path d="M26.0918 175.641C26.0918 182.955 23.1854 189.97 18.0111 195.145C12.8367 200.32 5.81716 203.231 -1.50497 203.24V148.178C5.79367 148.187 12.7925 151.08 17.9629 156.226C23.1334 161.371 26.0559 168.351 26.0918 175.641Z" fill="#CAEFE7"/>
<path d="M71.6309 422.98C71.6309 442.391 63.9113 461.008 50.1699 474.733C36.4286 488.459 17.7916 496.17 -1.6416 496.17V349.756C7.98362 349.756 17.5144 351.65 26.4065 355.331C35.2986 359.011 43.3779 364.405 50.1824 371.205C56.9869 378.005 62.3831 386.077 66.0634 394.961C69.7437 403.845 71.6353 413.366 71.6309 422.98Z" fill="#CAEFE7"/>
<path d="M71.6308 747.956C71.6308 767.367 63.9113 785.984 50.1699 799.709C36.4285 813.435 17.7916 821.146 -1.64163 821.146V674.664C7.98805 674.669 17.5219 676.568 26.4165 680.254C35.311 683.94 43.392 689.341 50.1965 696.147C57.0009 702.953 62.3962 711.032 66.0741 719.922C69.752 728.811 71.6398 738.337 71.6308 747.956Z" fill="#CAEFE7"/>
</g>
</svg>
