<svg width="225" height="808" viewBox="0 0 225 808" fill="none" xmlns="http://www.w3.org/2000/svg">
<g opacity="0.4">
<path d="M120.688 236.765C120.693 241.391 122.535 245.826 125.81 249.097C129.084 252.368 133.523 254.209 138.153 254.214V219.294C133.519 219.299 129.077 221.143 125.802 224.418C122.527 227.694 120.687 232.135 120.688 236.765Z" fill="#CAEFE7"/>
<path d="M184.55 300.568C184.55 294.48 183.35 288.453 181.018 282.829C178.687 277.205 175.269 272.095 170.961 267.791C166.653 263.487 161.538 260.072 155.909 257.743C150.28 255.413 144.247 254.214 138.154 254.214V346.921C144.247 346.921 150.28 345.722 155.909 343.392C161.538 341.063 166.653 337.649 170.961 333.344C175.269 329.04 178.687 323.93 181.018 318.306C183.35 312.682 184.55 306.655 184.55 300.568Z" fill="#CAEFE7"/>
<path d="M184.55 485.829C184.55 479.742 183.35 473.715 181.018 468.091C178.687 462.467 175.269 457.357 170.961 453.053C166.653 448.748 161.538 445.334 155.909 443.005C150.28 440.675 144.247 439.476 138.154 439.476V532.183C144.247 532.183 150.28 530.984 155.909 528.654C161.538 526.325 166.653 522.91 170.961 518.606C175.269 514.302 178.687 509.192 181.018 503.568C183.35 497.944 184.55 491.917 184.55 485.829Z" fill="#CAEFE7"/>
<path d="M91.8867 393.317C91.8867 405.586 96.7578 417.355 105.431 426.041C114.105 434.726 125.873 439.62 138.154 439.649V346.964C125.871 346.998 114.103 351.897 105.43 360.586C96.7569 369.275 91.8867 381.046 91.8867 393.317Z" fill="#CAEFE7"/>
<path d="M184.256 207.883C184.256 220.171 189.142 231.956 197.838 240.645C206.535 249.333 218.331 254.215 230.63 254.215V161.53C224.539 161.53 218.507 162.729 212.879 165.059C207.251 167.388 202.138 170.803 197.831 175.108C193.525 179.412 190.109 184.522 187.78 190.146C185.45 195.77 184.253 201.797 184.256 207.883Z" fill="#CAEFE7"/>
<path d="M184.256 393.317C184.256 405.605 189.142 417.39 197.838 426.078C206.535 434.767 218.331 439.649 230.63 439.649V346.964C218.329 346.969 206.534 351.856 197.837 360.548C189.141 369.24 184.256 381.027 184.256 393.317Z" fill="#CAEFE7"/>
<path d="M28.8008 608.617C28.8065 613.244 30.6487 617.679 33.9229 620.95C37.1972 624.221 41.6363 626.061 46.2668 626.067V591.146C41.6326 591.152 37.1899 592.995 33.9151 596.271C30.6402 599.547 28.8008 603.987 28.8008 608.617Z" fill="#CAEFE7"/>
<path d="M92.6637 672.42C92.6637 666.333 91.4633 660.305 89.1317 654.682C86.8 649.058 83.3825 643.948 79.0743 639.644C74.766 635.339 69.6514 631.925 64.0224 629.595C58.3933 627.266 52.3604 626.067 46.2676 626.067V718.773C52.3604 718.773 58.3933 717.574 64.0224 715.245C69.6514 712.916 74.766 709.501 79.0743 705.197C83.3825 700.893 86.8 695.783 89.1317 690.159C91.4633 684.535 92.6637 678.507 92.6637 672.42Z" fill="#CAEFE7"/>
<path d="M185.142 672.42C185.142 660.127 180.254 648.337 171.553 639.644C162.852 630.951 151.051 626.067 138.746 626.067V718.773C151.051 718.773 162.852 713.89 171.553 705.197C180.254 696.504 185.142 684.714 185.142 672.42Z" fill="#CAEFE7"/>
<path d="M3.48217e-10 765.17C-3.3024e-05 777.439 4.87113 789.207 13.5448 797.893C22.2184 806.579 33.9863 811.473 46.2669 811.501V718.816C33.9843 718.851 22.2162 723.749 13.5432 732.439C4.87017 741.128 -4.75184e-05 752.898 3.48217e-10 765.17Z" fill="#CAEFE7"/>
<path d="M92.3691 579.736C92.3691 592.024 97.2548 603.808 105.952 612.497C114.649 621.186 126.444 626.068 138.744 626.068V533.383C132.652 533.383 126.62 534.582 120.992 536.911C115.364 539.241 110.251 542.656 105.944 546.96C101.638 551.265 98.2221 556.375 95.8928 561.999C93.5635 567.622 92.3663 573.65 92.3691 579.736Z" fill="#CAEFE7"/>
<path d="M92.3691 765.17C92.3691 777.458 97.2548 789.242 105.952 797.931C114.649 806.62 126.444 811.501 138.744 811.501V718.816C126.442 718.822 114.647 723.708 105.951 732.401C97.2544 741.093 92.3691 752.88 92.3691 765.17Z" fill="#CAEFE7"/>
<path d="M179.088 559.234C179.094 571.524 183.984 583.309 192.685 591.997C201.385 600.685 213.183 605.566 225.484 605.566V512.795C219.384 512.795 213.344 513.997 207.709 516.332C202.075 518.666 196.956 522.089 192.647 526.402C188.338 530.715 184.922 535.835 182.595 541.469C180.269 547.103 179.077 553.14 179.088 559.234Z" fill="#CAEFE7"/>
<path d="M179.088 764.955C179.094 777.245 183.984 789.03 192.685 797.718C201.385 806.406 213.183 811.287 225.484 811.287V718.602C219.391 718.602 213.358 719.801 207.729 722.13C202.1 724.46 196.986 727.874 192.677 732.178C188.369 736.483 184.952 741.593 182.62 747.216C180.288 752.84 179.088 758.868 179.088 764.955Z" fill="#CAEFE7"/>
</g>
</svg>
